<?xml version="1.0" standalone="no"?>
<!DOCTYPE svg PUBLIC "-//W3C//DTD SVG 20010904//EN"
 "http://www.w3.org/TR/2001/REC-SVG-20010904/DTD/svg10.dtd">
<svg version="1.0" xmlns="http://www.w3.org/2000/svg"
 width="1024.000000pt" height="1024.000000pt" viewBox="0 0 1024.000000 1024.000000"
 preserveAspectRatio="xMidYMid meet">

<g transform="translate(0.000000,1024.000000) scale(0.100000,-0.100000)"
fill="#000000" stroke="none">
<path d="M6919 7321 c-75 -10 -176 -28 -225 -41 -84 -22 -91 -22 -124 -7 -19
9 -53 20 -75 26 -55 15 -1416 15 -1484 0 -27 -5 -70 -24 -96 -40 -46 -29 -48
-30 -74 -12 -90 60 -140 68 -347 54 -163 -12 -252 -24 -399 -56 -64 -14 -75
-13 -145 4 -285 71 -277 71 -1440 71 -927 0 -1031 -2 -1076 -16 -130 -44 -227
-158 -253 -299 -15 -83 -15 -3647 0 -3730 22 -121 104 -228 215 -282 58 -28
62 -28 239 -28 179 0 240 7 440 47 291 60 615 208 870 398 49 37 99 77 110 90
45 50 51 47 96 -44 50 -102 126 -201 214 -278 161 -141 341 -208 560 -208 223
0 414 70 567 208 l38 34 53 -36 c84 -58 136 -67 307 -56 320 20 562 85 810
217 100 53 232 139 293 189 l28 24 102 -68 c126 -85 243 -150 322 -181 33 -13
74 -30 90 -37 42 -17 197 -59 275 -74 36 -6 85 -17 110 -23 30 -7 367 -12
1044 -14 l1000 -4 63 31 c67 33 120 89 150 156 31 71 15 311 -29 454 -72 230
-192 446 -362 650 -25 30 -46 58 -46 61 0 3 37 24 83 47 184 92 340 282 400
485 29 99 31 338 3 442 -54 205 -208 394 -403 495 -35 17 -63 37 -63 43 0 6
17 31 38 56 169 203 276 396 350 631 23 75 43 215 44 312 1 84 -2 112 -19 149
-30 67 -90 128 -151 156 l-53 23 -957 -1 c-846 -1 -973 -3 -1093 -18z m1970
-280 c12 -8 12 -24 2 -109 -14 -119 -45 -221 -104 -346 -195 -410 -708 -853
-1442 -1246 -118 -63 -135 -73 -135 -80 0 -5 15 -14 125 -75 213 -117 499
-299 680 -435 533 -398 828 -798 877 -1192 10 -85 10 -101 -2 -108 -20 -13
-1569 -12 -1770 0 -350 22 -585 102 -850 290 -394 280 -635 695 -719 1238 -16
105 -14 439 4 553 22 148 35 209 57 284 98 336 249 592 470 800 275 258 609
400 1003 424 174 11 1787 12 1804 2z m-4227 -421 c7 -452 20 -581 74 -743 36
-109 112 -207 189 -246 59 -30 133 -40 146 -20 5 8 9 325 9 707 l0 692 495 0
c444 0 531 -4 482 -23 -28 -11 -205 -168 -263 -233 -84 -96 -181 -225 -237
-316 -155 -251 -265 -582 -306 -914 -15 -128 -14 -458 3 -584 54 -404 221
-795 464 -1092 40 -49 72 -92 72 -97 0 -13 -127 -98 -221 -149 -175 -95 -364
-152 -585 -177 -82 -9 -165 -15 -184 -13 l-35 3 -5 476 -5 476 -27 35 c-91
119 -440 281 -673 312 -82 11 -142 32 -295 104 -248 116 -475 344 -554 557
-10 28 -22 55 -26 60 -3 6 -12 28 -18 50 -62 216 -61 464 3 650 100 292 333
544 640 692 80 38 197 85 245 97 14 4 48 13 75 20 54 15 184 40 280 55 33 5
103 8 155 7 l95 -1 7 -385z m-1272 311 c0 -5 -17 -21 -37 -37 -71 -53 -229
-219 -285 -299 -84 -121 -157 -266 -197 -395 -25 -78 -51 -211 -51 -260 0 -19
-4 -41 -8 -47 -4 -7 -41 -17 -81 -23 -130 -18 -201 -62 -236 -145 -16 -39 -22
-105 -11 -123 5 -9 54 -12 175 -12 l168 0 22 -92 c42 -174 104 -318 199 -463
72 -110 267 -298 400 -386 l113 -74 -53 -7 c-29 -3 -105 -10 -169 -13 l-117
-7 -7 -66 c-12 -111 -74 -279 -144 -387 -75 -117 -234 -284 -356 -376 -197
-148 -455 -268 -705 -328 -85 -20 -333 -51 -410 -51 l-40 0 0 1800 0 1800 915
0 c521 0 915 -4 915 -9z m5217 -1196 c143 -36 279 -174 333 -339 16 -50 16
-220 0 -271 -31 -99 -67 -160 -128 -222 -35 -35 -80 -72 -100 -82 -129 -66
-268 -79 -392 -37 -87 30 -135 62 -201 134 -91 99 -124 194 -123 347 1 159 40
253 144 355 82 80 152 112 290 134 35 5 115 -3 177 -19z m-4547 -1407 c137
-39 269 -160 319 -292 72 -193 28 -398 -114 -539 -100 -99 -199 -140 -340
-140 -128 -1 -226 38 -323 127 -103 96 -152 213 -152 365 0 102 7 133 51 229
66 142 222 252 374 265 54 5 142 -3 185 -15z"/>
</g>
</svg>
