<?xml version="1.0" standalone="no"?>
<!DOCTYPE svg PUBLIC "-//W3C//DTD SVG 20010904//EN"
 "http://www.w3.org/TR/2001/REC-SVG-20010904/DTD/svg10.dtd">
<svg version="1.0" xmlns="http://www.w3.org/2000/svg"
 width="94.000000pt" height="94.000000pt" viewBox="0 0 94.000000 94.000000"
 preserveAspectRatio="xMidYMid meet">

<g transform="translate(0.000000,94.000000) scale(0.100000,-0.100000)"
fill="#000000" stroke="none">
<path d="M116 663 c-3 -4 -6 -88 -6 -188 0 -206 2 -212 67 -200 21 3 53 15 71
26 l34 19 31 -26 c23 -19 37 -24 56 -19 14 4 51 10 81 14 30 4 65 13 78 20 19
10 30 10 65 -4 31 -12 69 -15 142 -13 l100 3 3 27 c2 15 -4 41 -13 58 -15 29
-15 32 5 57 26 33 26 67 -1 94 -21 21 -21 23 -5 49 9 16 16 42 16 59 l0 31
-359 0 c-197 -1 -361 -4 -365 -7z m696 -38 c-6 -33 -40 -72 -92 -106 -28 -18
-50 -35 -50 -39 0 -4 11 -12 24 -18 40 -18 104 -80 115 -112 l10 -30 -102 0
c-119 0 -154 15 -187 79 -47 94 -5 213 86 241 16 5 67 8 114 7 79 -2 85 -3 82
-22z m-512 6 c0 -5 -6 -14 -14 -20 -8 -7 -18 -25 -21 -41 -3 -16 -13 -31 -21
-34 -18 -7 -18 -26 0 -26 7 0 19 -14 26 -30 7 -17 21 -37 32 -44 16 -12 17
-14 3 -19 -8 -4 -15 -12 -15 -20 0 -15 -44 -59 -77 -76 -12 -6 -33 -11 -47
-11 l-26 0 0 158 c0 87 3 162 7 165 10 10 153 8 153 -2z m130 -35 c0 -54 8
-76 26 -76 10 0 14 15 14 60 l0 60 41 0 41 0 -25 -30 c-53 -62 -60 -165 -17
-235 20 -32 20 -34 3 -43 -10 -5 -30 -12 -45 -16 -27 -6 -28 -5 -28 39 0 48
-16 66 -73 79 -62 15 -96 91 -66 147 14 28 68 59 102 59 25 0 27 -3 27 -44z
m371 -76 c38 -21 18 -80 -28 -80 -33 0 -49 35 -28 66 17 27 27 29 56 14z
m-411 -134 c28 -35 -11 -93 -47 -70 -36 22 -23 84 17 84 10 0 23 -7 30 -14z"/>
</g>
</svg>
